<?xml version="1.0" encoding="UTF-8"?>
<svg height="128px" viewBox="0 0 128 128" width="128px" xmlns="http://www.w3.org/2000/svg" xmlns:xlink="http://www.w3.org/1999/xlink">
    <linearGradient id="a" gradientUnits="userSpaceOnUse" x1="12" x2="116" y1="64" y2="64">
        <stop offset="0" stop-color="#3d3846"/>
        <stop offset="0.05" stop-color="#77767b"/>
        <stop offset="0.1" stop-color="#5e5c64"/>
        <stop offset="0.899999" stop-color="#504e56"/>
        <stop offset="0.95" stop-color="#77767b"/>
        <stop offset="1" stop-color="#3d3846"/>
    </linearGradient>
    <linearGradient id="b" gradientUnits="userSpaceOnUse" x1="12" x2="112.041" y1="60" y2="80.988297">
        <stop offset="0" stop-color="#77767b"/>
        <stop offset="0.384443" stop-color="#9a9996"/>
        <stop offset="0.720567" stop-color="#77767b"/>
        <stop offset="1" stop-color="#68666f"/>
    </linearGradient>
    <linearGradient id="c" gradientUnits="userSpaceOnUse" x1="101.333" x2="61.536201" y1="45.442902" y2="78.083801">
        <stop offset="0" stop-color="#ff7777"/>
        <stop offset="1" stop-color="#ba3e3e"/>
    </linearGradient>
    <linearGradient id="d" gradientUnits="userSpaceOnUse" x1="45.410999" x2="89.350304" y1="71.214302" y2="41.315601">
        <stop offset="0" stop-color="#6d6d6d"/>
        <stop offset="1" stop-color="#e7e7e7"/>
    </linearGradient>
    <path d="m 108 22 h -88 c -4.417969 0 -8 3.582031 -8 8 v 78 c 0 4.417969 3.582031 8 8 8 h 88 c 4.417969 0 8 -3.582031 8 -8 v -78 c 0 -4.417969 -3.582031 -8 -8 -8 z m 0 0" fill="url(#a)"/>
    <path d="m 108 12 h -88 c -4.417969 0 -8 3.582031 -8 8 v 80 c 0 4.417969 3.582031 8 8 8 h 88 c 4.417969 0 8 -3.582031 8 -8 v -80 c 0 -4.417969 -3.582031 -8 -8 -8 z m 0 0" fill="url(#b)"/>
    <path d="m 108 14 h -88 c -3.3125 0 -6 2.6875 -6 6 v 80 c 0 3.3125 2.6875 6 6 6 h 88 c 3.3125 0 6 -2.6875 6 -6 v -80 c 0 -3.3125 -2.6875 -6 -6 -6 z m 0 0" fill="#241f31"/>
    <g fill-rule="evenodd">
        <path d="m 71.046875 44.171875 c -0.109375 0.035156 -0.136719 0.082031 -0.246094 0.175781 c -0.085937 0.074219 -0.160156 0.125 -0.246093 0.199219 c -0.191407 0.167969 -0.304688 0.269531 -0.476563 0.414063 c -0.847656 0.710937 -1.996094 1.816406 -2.824219 2.589843 c -1.285156 1.203125 -2.445312 2.363281 -3.679687 3.558594 c -2.328125 2.253906 -4.964844 4.964844 -7.296875 7.140625 c -1.925782 1.796875 -3.574219 3.410156 -5.589844 5.207031 c -0.765625 0.6875 -1.25 1.3125 -2.300781 1.347657 c -1.726563 0.058593 -4.003907 -1.410157 -5.171875 -2.078126 c -1.015625 -0.582031 -3.722656 -2.171874 -5.027344 -2.214843 l 0.957031 1.3125 c 0.683594 1.039062 1.832031 3.304687 2.382813 4.410156 c 1.894531 3.789063 4.453125 7.757813 7.710937 10.394531 c 0.832031 0.675782 1.585938 1.242188 2.644531 1.882813 c 0.464844 0.277343 0.9375 0.511719 1.457032 0.804687 c 0.179687 0.101563 1.425781 0.683594 1.582031 0.683594 c -0.34375 -0.34375 -0.695313 -0.757812 -0.972656 -1.085938 c -1.238281 -1.453124 -3.996094 -4.285156 -4.828125 -5.730468 c -0.695313 -1.210938 -0.851563 -1.953125 -0.082032 -3.171875 c 0.886719 -1.390625 2.945313 -3.113281 4.238282 -4.214844 c 3.144531 -2.6875 5.984375 -5.121094 9.273437 -7.667969 c 1.558594 -1.210937 3.179688 -2.441406 4.859375 -3.636718 c 1.644532 -1.171876 3.296875 -2.300782 5.015625 -3.433594 l 2.59375 -1.648438 c 0.242188 -0.136718 2.601563 -1.542968 2.640625 -1.589844 l 2.3125 -1.273437 c 0.773438 -0.4375 1.527344 -0.800781 2.351563 -1.242187 c 2.410156 -1.296876 7.203125 -3.410157 9.945312 -4.378907 c 0.902344 -0.316406 1.761719 -0.617187 2.671875 -0.925781 l 2.730469 -0.855469 c -0.21875 -0.113281 -3.238281 -0.144531 -3.792969 -0.144531 c -2.238281 0 -3.613281 0.0625 -5.746094 0.230469 c -1.636718 0.128906 -4.679687 0.464843 -6.167968 0.824219 c -0.265625 0.0625 -0.582032 0.089843 -0.851563 0.160156 c -0.515625 0.136718 -1.105469 0.230468 -1.636719 0.363281 c -1.085937 0.269531 -2.074218 0.574219 -3.097656 0.878906 c -1.054687 0.316407 -2.007812 0.6875 -2.949218 1.074219 c -0.558594 0.226562 -2.238282 1.351562 -2.382813 1.640625 z m 21.859375 5.398437 l 1.988281 -1.011718 c 0.6875 -0.328125 1.398438 -0.707032 2.050781 -1.023438 c 1.316407 -0.640625 2.074219 -2.722656 2.054688 -4.054687 c -0.234375 0.007812 -1.179688 0.457031 -1.4375 0.550781 c -0.175781 0.0625 -0.335938 0.117188 -0.503906 0.1875 c -1.171875 0.5 -2.738282 1.085938 -3.851563 1.609375 c -0.320312 0.152344 -0.632812 0.28125 -0.960937 0.417969 c -0.257813 0.113281 -0.820313 0.332031 -0.925782 0.464844 c -0.355468 -0.019532 -7.539062 3.535156 -8.4375 4 c -1.273437 0.65625 -2.878906 1.445312 -4.105468 2.125 c -0.144532 0.082031 -3.882813 2.058593 -4.03125 2.246093 c -0.246094 0.042969 -2.808594 1.5625 -3.214844 1.789063 c -5.070312 2.855468 -10.683594 6.449218 -15.539062 9.738281 c -1.351563 0.910156 -3.074219 2.109375 -4.429688 3.128906 l -1.089844 0.8125 c -0.125 0.09375 -0.273437 0.160157 -0.34375 0.300781 c 0.484375 0.417969 3.691406 1.734376 4.457032 2.011719 c 4.292968 1.542969 8.3125 2.621094 12.828124 3.394531 l 2.867188 0.4375 l 2.257812 0.199219 l -1.839843 -0.164062 c 0.351562 0.042969 0.703125 0.097656 1.042969 0.132812 c 0.503906 0.046875 1.007812 0.085938 1.527343 0.140625 c 0.980469 0.097656 2.117188 0.164063 3.125 0.183594 c 1.25 0.019531 1.941407 0.085938 2.96875 -0.347656 c 0.792969 -0.335938 1.441407 -0.753906 2.074219 -1.238282 c 2.355469 -1.800781 4.453125 -4.621093 6.125 -7.171874 c 1.75 -2.671876 3.328125 -5.652344 4.6875 -8.609376 c 0.691406 -1.503906 1.339844 -3.078124 1.953125 -4.675781 c 0.308594 -0.8125 0.578125 -1.59375 0.855469 -2.457031 c 0.15625 -0.472656 0.71875 -2.214844 0.761718 -2.601562 c -0.640624 0.085937 -11.878906 6.140624 -12.949218 6.710937 c -1.449219 0.777344 -2.839844 1.589844 -4.246094 2.351563 c -1.367188 0.742187 -2.8125 1.617187 -4.175781 2.371093 c -2.761719 1.535157 -5.546875 3.242188 -8.308594 4.839844 c -0.472656 0.273437 -3.988281 2.324219 -4.113281 2.46875 c 0.234375 -0.039063 11.378906 -4.816406 11.652344 -4.925781 c 0.523437 -0.21875 11.464843 -4.90625 11.644531 -4.914063 c -0.0625 0.253907 -0.738281 1.515625 -0.910157 1.886719 c -0.285156 0.617188 -0.628906 1.320312 -0.9375 1.9375 c -1.765624 3.484375 -3.679687 7.667969 -7.535156 9.210938 l -0.230468 0.140624 c -0.207032 0.003907 -0.769532 0.234376 -1.019532 0.300782 c -0.375 0.101562 -0.734375 0.175781 -1.113281 0.25 c -1.777344 0.363281 -4.460937 0.175781 -6.3125 -0.113282 c -2.109375 -0.332031 -3.585937 -0.699218 -5.632813 -1.195312 c -0.488281 -0.117188 -4.015624 -1.105469 -4.21875 -1.242188 c 0.113282 -0.199218 2.132813 -1.488281 2.308594 -1.613281 c 3.90625 -2.707031 10.390625 -6.691406 14.609375 -9.085937 c 0.449219 -0.253906 0.863281 -0.484375 1.269531 -0.71875 c 0.339844 -0.195313 0.960938 -0.515625 1.238282 -0.714844 l 1.972656 -1.082031 c 0.667969 -0.371094 1.28125 -0.691407 1.984375 -1.089844 c 1.328125 -0.757813 2.675781 -1.390625 3.980469 -2.128906 c 0.195312 -0.105469 7.664062 -4.027344 8.128906 -4.160157 z m -50.78125 20.453126 c -0.078125 -0.164063 -1.425781 -1.59375 -1.695312 -1.890626 c -1.699219 -1.898437 -3.347657 -3.664062 -5.058594 -5.65625 c -1.191406 -1.386718 -2.253906 -2.664062 -3.265625 -3.890624 c -0.421875 -0.515626 -2.746094 -3.425782 -3.101563 -4.019532 c -0.046875 0.113282 0.539063 2.5 0.625 2.8125 c 0.132813 0.484375 0.234375 0.921875 0.371094 1.414063 c 1.320312 4.800781 2.640625 6.617187 7.1875 8.9375 c 0.5625 0.285156 4.636719 2.25 4.9375 2.292969 z m 0 0" fill="url(#c)"/>
        <path d="m 71.246094 44.171875 c -0.109375 0.035156 -0.136719 0.082031 -0.246094 0.175781 c -0.085938 0.074219 -0.160156 0.125 -0.246094 0.199219 c -0.195312 0.167969 -0.308594 0.269531 -0.480468 0.414063 c -0.851563 0.710937 -2.003907 1.816406 -2.835938 2.589843 c -1.292969 1.203125 -2.460938 2.363281 -3.699219 3.558594 c -2.339843 2.253906 -4.988281 4.964844 -7.332031 7.140625 c -1.933594 1.796875 -3.59375 3.410156 -5.613281 5.207031 c -0.773438 0.6875 -1.261719 1.3125 -2.3125 1.347657 c -1.734375 0.058593 -4.027344 -1.410157 -5.195313 -2.078126 c -1.023437 -0.582031 -3.742187 -2.171874 -5.054687 -2.214843 l 0.960937 1.3125 c 0.6875 1.039062 1.839844 3.304687 2.394532 4.410156 c 1.90625 3.789063 4.476562 7.757813 7.75 10.394531 c 0.835937 0.675782 1.59375 1.242188 2.65625 1.882813 c 0.464843 0.277343 0.941406 0.511719 1.460937 0.804687 c 0.183594 0.101563 1.4375 0.683594 1.589844 0.683594 c -0.34375 -0.34375 -0.695313 -0.757812 -0.976563 -1.085938 c -1.246094 -1.453124 -4.015625 -4.285156 -4.847656 -5.730468 c -0.699219 -1.210938 -0.859375 -1.953125 -0.082031 -3.171875 c 0.886719 -1.390625 2.957031 -3.113281 4.257812 -4.214844 c 3.160157 -2.6875 6.007813 -5.121094 9.316407 -7.667969 c 1.566406 -1.210937 3.195312 -2.441406 4.882812 -3.636718 c 1.652344 -1.171876 3.3125 -2.300782 5.039062 -3.433594 l 2.605469 -1.648438 c 0.242188 -0.136718 2.613281 -1.542968 2.652344 -1.589844 l 2.324219 -1.273437 c 0.777344 -0.4375 1.535156 -0.800781 2.363281 -1.242187 c 2.421875 -1.296876 7.234375 -3.410157 9.992187 -4.378907 c 0.90625 -0.316406 1.769532 -0.617187 2.683594 -0.925781 l 2.746094 -0.855469 c -0.222656 -0.113281 -3.253906 -0.144531 -3.8125 -0.144531 c -2.25 0 -3.628906 0.0625 -5.777344 0.230469 c -1.640625 0.128906 -4.699218 0.464843 -6.191406 0.824219 c -0.269531 0.0625 -0.589844 0.089843 -0.859375 0.160156 c -0.519531 0.136718 -1.109375 0.230468 -1.640625 0.363281 c -1.09375 0.269531 -2.085938 0.574219 -3.117188 0.878906 c -1.058593 0.316407 -2.015624 0.6875 -2.960937 1.074219 c -0.558594 0.226562 -2.25 1.351562 -2.394531 1.640625 z m -29.058594 25.851563 c -0.078125 -0.164063 -1.433594 -1.59375 -1.703125 -1.890626 c -1.707031 -1.898437 -3.367187 -3.664062 -5.082031 -5.65625 c -1.199219 -1.386718 -2.265625 -2.664062 -3.28125 -3.890624 c -0.425782 -0.515626 -2.761719 -3.425782 -3.117188 -4.019532 c -0.046875 0.113282 0.542969 2.5 0.628906 2.8125 c 0.132813 0.484375 0.234376 0.921875 0.371094 1.414063 c 1.328125 4.800781 2.652344 6.617187 7.222656 8.9375 c 0.5625 0.285156 4.65625 2.25 4.960938 2.292969 z m 0 0" fill="url(#d)"/>
    </g>
</svg>
